<svg id="Слой_1" data-name="Слой 1" xmlns="http://www.w3.org/2000/svg" viewBox="0 0 1920 1080"><defs><style>.cls-1{fill:none;}.cls-2{fill:currentColor;}.cls-3{fill:#ff005e;}</style></defs><rect class="cls-1" width="1920" height="1080"/><path class="cls-2" d="M968.75,275H893.42a4,4,0,0,0-2.83,1.17L778.05,388.75a4,4,0,0,0-.07,5.59l112.6,118.18a4,4,0,0,0,2.9,1.24H969a4,4,0,0,0,3-6.59l-96.19-113a4,4,0,0,1,.07-5.26l95.78-107.24A4,4,0,0,0,968.75,275Z"/><path class="cls-3" d="M952.25,634.09h75.33a4,4,0,0,0,2.83-1.17L1143,520.34a4,4,0,0,0,.07-5.59l-112.6-118.17a4,4,0,0,0-2.9-1.25H952a4,4,0,0,0-3,6.6l96.19,113a4,4,0,0,1-.07,5.26L949.27,627.43A4,4,0,0,0,952.25,634.09Z"/><path class="cls-2" d="M720.73,710.5c-27.51,0-44.73,18.35-44.73,47.78S693.22,806,720.73,806s44.73-18.36,44.73-47.72S748.17,710.5,720.73,710.5Zm0,16.12c15.17,0,24.87,12.28,24.87,31.66s-9.7,31.54-24.87,31.54-24.94-12.22-24.94-31.54S705.56,726.62,720.73,726.62Z"/><path class="cls-2" d="M781.85,778.11a1.91,1.91,0,0,0-1.93,2.07c1.61,16.1,15.55,25.82,37,25.82,23,0,37.6-11.32,37.6-29.23,0-14.08-8.1-22-26.68-26l-11.24-2.37c-10.67-2.43-15.17-5.63-15.17-11.32,0-6.85,6.43-11.39,16-11.39,8.93,0,15.46,4,17,10.72a2.25,2.25,0,0,0,2.12,1.82h14.31a1.9,1.9,0,0,0,1.93-2c-1.35-15.55-14.67-25.72-35.37-25.72s-35.48,11.26-35.48,28.27c0,13.5,8.42,22.13,25.52,25.78l12.08,2.62c11.18,2.5,15.62,5.82,15.62,11.84,0,6.78-7.07,11.7-17.42,11.7-9.48,0-17-4.24-18.81-10.86a2.28,2.28,0,0,0-2.12-1.74Z"/><path class="cls-2" d="M913.52,710.5c-27.5,0-44.73,18.35-44.73,47.78S886,806,913.52,806s44.73-18.36,44.73-47.72S941,710.5,913.52,710.5Zm0,16.12c15.17,0,24.87,12.28,24.87,31.66s-9.7,31.54-24.87,31.54-24.93-12.22-24.93-31.54S898.36,726.62,913.52,726.62Z"/><path class="cls-2" d="M992.62,804.4a2,2,0,0,0,2-2V744.33A.38.38,0,0,1,995,744h0a.4.4,0,0,1,.31.16L1038,803.57a2,2,0,0,0,1.63.83h13a2,2,0,0,0,2-2V714.1a2,2,0,0,0-2-2h-14.57a2,2,0,0,0-2,2v57.79a.34.34,0,0,1-.34.33h0a.34.34,0,0,1-.28-.14l-42.62-59.15a2,2,0,0,0-1.62-.83H978.05a2,2,0,0,0-2,2v88.3a2,2,0,0,0,2,2Z"/><path class="cls-2" d="M1092.81,804.4a2,2,0,0,0,2-2V776.92a2,2,0,0,1,.47-1.29l6.55-7.82a2,2,0,0,1,3.16.12l25.41,35.63a2,2,0,0,0,1.62.84h18.29a2,2,0,0,0,1.63-3.16l-33.54-47a2,2,0,0,1,.09-2.44l30.57-36.47a2,2,0,0,0-1.53-3.28h-16.37a2,2,0,0,0-1.54.72L1095.51,754a.42.42,0,0,1-.3.15h0a.4.4,0,0,1-.4-.4V714.1a2,2,0,0,0-2-2H1077.4a2,2,0,0,0-2,2v88.3a2,2,0,0,0,2,2Z"/><path class="cls-2" d="M1186.71,714.1a2,2,0,0,0-2-2H1169.3a2,2,0,0,0-2,2v57.68c0,20.34,15.1,34.22,38.88,34.22S1245,792.12,1245,771.78V714.1a2,2,0,0,0-2-2h-15.41a2,2,0,0,0-2,2v55.76c0,11.83-7,19.57-19.41,19.57s-19.47-7.74-19.47-19.57Z"/></svg>